# xmcd
#
# Track frame offsets: 
#        150
#        1205
#        18729
#        37484
#        38058
#        56346
#        77795
#        95523
#        96181
#        112972
#        130676
#        145595
#        170991
#        172341
#
# Disc length: 2519 seconds
#
# Revision: 0
# Processed by: cddbd v1.5.2PL0 Copyright (c) Steve Scherf et al.
# Submitted via: ExactAudioCopy v1.0b1
#
DISCID=bd09d50e
DTITLE=D-N-G of Shai - Worldwide
DYEAR=2008
DGENRE=Soul
TTITLE0=Intro
TTITLE1=Perfect 10 (feat. Akil, Jurassic 5)
TTITLE2=I be Sexy (feat. J-Ro, Alkaholics)
TTITLE3=Skit
TTITLE4=Tell Me Why (feat. Nitro)
TTITLE5=Like A Boss (feat. Trillville)
TTITLE6=I don't Know What To Do (feat. Puba Don)
TTITLE7=Skit
TTITLE8=My Cherry
TTITLE9=Something About You
TTITLE10=I Promise
TTITLE11=Catch Me If You Can
TTITLE12=Skit
TTITLE13=Recipe For Love
EXTD=
EXTT0=
EXTT1=
EXTT2=
EXTT3=
EXTT4=
EXTT5=
EXTT6=
EXTT7=
EXTT8=
EXTT9=
EXTT10=
EXTT11=
EXTT12=
EXTT13=
PLAYORDER=
